<?xml version="1.0" encoding="UTF-8"?>
<svg width="24px" height="25px" viewBox="0 0 24 25" version="1.1" xmlns="http://www.w3.org/2000/svg" xmlns:xlink="http://www.w3.org/1999/xlink">
    <title>8A8CCDBB-BF9B-46A1-927C-6AF621DE0CC1</title>
    <g id="Symbols" stroke="none" stroke-width="1" fill="none" fill-rule="evenodd">
        <g id="Footer" transform="translate(-1151.000000, -243.000000)" fill="#FFFFFF" fill-rule="nonzero">
            <g id="Group-21">
                <g>
                    <g transform="translate(1095.000000, 59.000000)">
                        <g id="Group-20" transform="translate(0.000000, 184.000000)">
                            <path d="M75.5,0 L60.5,0 C58.0141538,0 56,2.09807692 56,4.6875 L56,20.3125 C56,22.9019231 58.0141538,25 60.5,25 L75.5,25 C77.9858462,25 80,22.9019231 80,20.3125 L80,4.6875 C80,2.09807692 77.9858462,0 75.5,0 Z M74.8898462,13.4634615 L72.644,13.4634615 L72.644,22.1211538 L68.8935385,22.1211538 L68.8935385,13.4634615 L67.4387692,13.4634615 L67.4387692,10.5471154 L68.8935385,10.5471154 L68.8935385,8.68942308 C68.8944615,6.25384615 69.8655385,4.80769231 72.6209231,4.80769231 L75.4132308,4.80769231 L75.4132308,7.71346154 L73.7913846,7.71346154 C72.7187692,7.71346154 72.6486154,8.12980769 72.6486154,8.90865385 L72.644,10.5461538 L75.1953846,10.5461538 L74.8898462,13.4634615 Z" id="Shape"></path>
                        </g>
                    </g>
                </g>
            </g>
        </g>
    </g>
</svg>