<?xml version="1.0" encoding="UTF-8"?>
<svg width="24px" height="25px" viewBox="0 0 24 25" version="1.1" xmlns="http://www.w3.org/2000/svg" xmlns:xlink="http://www.w3.org/1999/xlink">
    <title>787C41EF-3D06-471F-832D-658B3B7177A9</title>
    <g id="Symbols" stroke="none" stroke-width="1" fill="none" fill-rule="evenodd">
        <g id="Footer" transform="translate(-1263.000000, -243.000000)" fill="#FFFFFF" fill-rule="nonzero">
            <g id="Group-21">
                <g>
                    <g transform="translate(1095.000000, 59.000000)">
                        <g id="Group-20" transform="translate(0.000000, 184.000000)">
                            <path d="M180,7.421875 C177.285937,7.421875 175.078125,9.72167969 175.078125,12.5488281 C175.078125,15.3759766 177.285937,17.6757813 180,17.6757813 C182.714063,17.6757813 184.921875,15.3759766 184.921875,12.5488281 C184.921875,9.72167969 182.714063,7.421875 180,7.421875 Z M180,7.421875 C177.285937,7.421875 175.078125,9.72167969 175.078125,12.5488281 C175.078125,15.3759766 177.285937,17.6757813 180,17.6757813 C182.714063,17.6757813 184.921875,15.3759766 184.921875,12.5488281 C184.921875,9.72167969 182.714063,7.421875 180,7.421875 Z M188.484375,0 L171.515625,0 C169.575,0 168,1.640625 168,3.66210937 L168,21.3378906 C168,23.359375 169.575,25 171.515625,25 L188.484375,25 C190.425,25 192,23.359375 192,21.3378906 L192,3.66210937 C192,1.640625 190.425,0 188.484375,0 Z M180,19.140625 C176.512547,19.140625 173.671875,16.1815918 173.671875,12.5488281 C173.671875,8.9159668 176.512547,5.95703125 180,5.95703125 C183.487453,5.95703125 186.328125,8.9159668 186.328125,12.5488281 C186.328125,16.1815918 183.487453,19.140625 180,19.140625 Z M187.734375,5.95703125 C186.960938,5.95703125 186.328125,5.29785156 186.328125,4.4921875 C186.328125,3.68652344 186.960938,3.02734375 187.734375,3.02734375 C188.507812,3.02734375 189.140625,3.68652344 189.140625,4.4921875 C189.140625,5.29785156 188.507812,5.95703125 187.734375,5.95703125 Z M180,7.421875 C177.285937,7.421875 175.078125,9.72167969 175.078125,12.5488281 C175.078125,15.3759766 177.285937,17.6757813 180,17.6757813 C182.714063,17.6757813 184.921875,15.3759766 184.921875,12.5488281 C184.921875,9.72167969 182.714063,7.421875 180,7.421875 Z M180,7.421875 C177.285937,7.421875 175.078125,9.72167969 175.078125,12.5488281 C175.078125,15.3759766 177.285937,17.6757813 180,17.6757813 C182.714063,17.6757813 184.921875,15.3759766 184.921875,12.5488281 C184.921875,9.72167969 182.714063,7.421875 180,7.421875 Z M180,7.421875 C177.285937,7.421875 175.078125,9.72167969 175.078125,12.5488281 C175.078125,15.3759766 177.285937,17.6757813 180,17.6757813 C182.714063,17.6757813 184.921875,15.3759766 184.921875,12.5488281 C184.921875,9.72167969 182.714063,7.421875 180,7.421875 Z" id="Shape"></path>
                        </g>
                    </g>
                </g>
            </g>
        </g>
    </g>
</svg>