<?xml version="1.0" encoding="UTF-8"?>
<svg width="24px" height="25px" viewBox="0 0 24 25" version="1.1" xmlns="http://www.w3.org/2000/svg" xmlns:xlink="http://www.w3.org/1999/xlink">
    <title>EC87C4A6-D4BA-46AE-927F-5CBA8733F8CA</title>
    <!-- <defs>
        <radialGradient cx="203.097021%" cy="109.942623%" fx="203.097021%" fy="109.942623%" r="381.129756%" gradientTransform="translate(2.030970,1.099426),scale(1.000000,0.960000),translate(-2.030970,-1.099426)" id="radialGradient-1">
            <stop stop-color="#D08634" offset="0%"></stop>
            <stop stop-color="#C08949" offset="100%"></stop>
        </radialGradient>
    </defs> -->
    <g id="Symbols" stroke="none" stroke-width="1" fill="none" fill-rule="evenodd">
        <g id="Footer" transform="translate(-1207.000000, -243.000000)" fill="#FFFFFF" fill-rule="nonzero">
            <g id="Group-21">
                <g>
                    <g transform="translate(1095.000000, 59.000000)">
                        <g id="Group-20" transform="translate(0.000000, 184.000000)">
                            <path d="M132.484375,0 L115.515625,0 C113.577271,0 112,1.64299014 112,3.66210937 L112,21.3378906 C112,23.3570099 113.577271,25 115.515625,25 L132.484375,25 C134.422729,25 136,23.3570099 136,21.3378906 L136,3.66210937 C136,1.64299014 134.422729,0 132.484375,0 Z M120.484375,19.8242187 L117.671875,19.8242187 L117.671875,9.5703125 L120.484375,9.5703125 L120.484375,19.8242187 Z M120.484375,8.10546875 L117.671875,8.10546875 L117.671875,5.17578125 L120.484375,5.17578125 L120.484375,8.10546875 Z M130.328125,19.8242187 L127.515625,19.8242187 L127.515625,13.9648438 C127.515625,13.1572724 126.884644,12.5 126.109375,12.5 C125.334106,12.5 124.703125,13.1572724 124.703125,13.9648438 L124.703125,19.8242187 L121.890625,19.8242187 L121.890625,9.5703125 L124.703125,9.5703125 L124.703125,10.1224899 C125.439941,9.88388062 125.918579,9.5703125 126.8125,9.5703125 C128.71991,9.5724106 130.328125,11.3548279 130.328125,13.4613037 L130.328125,19.8242187 Z" id="Shape"></path>
                        </g>
                    </g>
                </g>
            </g>
        </g>
    </g>
</svg>