<?xml version="1.0" encoding="UTF-8"?>
<svg width="24px" height="25px" viewBox="0 0 24 25" version="1.1" xmlns="http://www.w3.org/2000/svg" xmlns:xlink="http://www.w3.org/1999/xlink">
    <title>5B3A9242-3158-4320-8A91-C9533B1C464B</title>
    <g id="Symbols" stroke="none" stroke-width="1" fill="none" fill-rule="evenodd">
        <g id="Footer" transform="translate(-1095.000000, -243.000000)" fill="#FFFFFF" fill-rule="nonzero">
            <g id="Group-21">
                <g>
                    <g transform="translate(1095.000000, 59.000000)">
                        <g id="Group-20" transform="translate(0.000000, 184.000000)">
                            <path d="M19.5,0 L4.5,0 C2.01415385,0 0,2.09807692 0,4.6875 L0,20.3125 C0,22.9019231 2.01415385,25 4.5,25 L19.5,25 C21.9858462,25 24,22.9019231 24,20.3125 L24,4.6875 C24,2.09807692 21.9858462,0 19.5,0 Z M13.5898653,18.9990853 C10.5575481,19.0516601 9.40888899,16.8264971 9.40888899,15.2602215 L9.40888899,10.6860233 L8,10.6860233 L8,8.87767646 C10.1119233,8.11174839 10.6195971,6.19598258 10.7388065,5.10458232 C10.7470797,5.02950246 10.8057442,5 10.8392131,5 L12.8776177,5 L12.8776177,8.56638817 L15.6634311,8.56638817 L15.6634311,10.6862124 L12.8680283,10.6862124 L12.8680283,15.0444378 C12.8770536,15.6369446 13.0932851,16.4543128 14.2077232,16.424243 C14.5768209,16.4149763 15.0717089,16.3069899 15.3306226,16.1827393 L16,18.1788803 C15.7491715,18.5508755 14.6129222,18.9814973 13.5898653,18.9990853 Z" id="Shape"></path>
                        </g>
                    </g>
                </g>
            </g>
        </g>
    </g>
</svg>