<svg xmlns="http://www.w3.org/2000/svg" width="100" height="60" viewBox="0 0 100 60">
    <g fill="#FFF">
        <path d="M77.078 4.74c.184 3.369 2.456 6.582 4.841 8.806 3.134 2.925 6.958 4.984 10.046 8.004 3.043 2.977 5.58 6.527 6.826 10.632.304.996.532 2.014.68 3.045.048.326.086.658.118.986l.033.462c.029.574.04.614.035.118V57.431c0 .184 0 2.459.026 2.459.025 0 .025-2.433.025-2.458v-8.804c0-5.566.317-11.232-.076-16.785-.657-9.276-7.488-15.869-14.725-20.875C81.353 8.51 77.35 4.632 77.098 0c.066 1.17-.093 3.264-.012 4.74h-.008z"/>
        <path d="M77.11 23.85V14.66l-.024 2.458c.413 1.807 1.466 3.55 2.564 5.02 2.45 3.264 5.992 4.989 9.018 7.597 2.47 2.132 4.282 4.77 4.982 7.986.185.937.316 1.883.393 2.834.174 1.657.058-2.964.017-.878-.012.64-.02 1.283-.027 1.925-.029 2.442-.04 4.886-.036 7.33 0 3.38.02 6.762.086 10.138.018.934.033-.796.033-.881 0-1.12.012-2.242 0-3.364-.054-2.703-.072-5.408-.056-8.114.028-4.19.436-8.535-.183-12.705-.456-3.195-1.975-6.145-4.313-8.378-2.841-2.746-6.509-4.4-9.11-7.42-1.464-1.698-2.872-3.799-3.376-6.006.161.708-.025 1.758-.025 2.458v9.188c0 .184 0 2.458.025 2.458s.025-2.433.025-2.458h.008z"/>
        <path d="M77.11 41.518v-10.16l-.024 2.458c1.032 4.519 4.942 7.903 8.604 10.36 2.255 1.507 4.489 3.219 6.046 5.48.709 1.039 1.259 2.176 1.632 3.375.188.616.337 1.243.446 1.878.214 1.215.214 4.8.274.273-.015 1.16-.02 2.32 0 3.477 0 .713.023.944.033 0 .045-3.472.292-7.18-.756-10.544-.922-2.964-2.922-5.271-5.33-7.167-3.022-2.39-6.312-4.152-8.614-7.358-.995-1.386-1.945-3.013-2.328-4.69.161.708-.025 1.745-.025 2.458v10.16c0 .183 0 2.458.025 2.458s.025-2.433.025-2.458h-.007z"/>
        <path d="M94.101 59.277L76.592 59.232 76.592 46.78 77.579 46.78 77.579 58.253 94.103 58.295zM69.179 40.772c-2.37-.552-3.61-.828-3.69-.85l-.67-.141c0-.12-.02-.251-.033-.367-.213-2.72-.32-4.102-.323-4.147 0-.116.028-.138.053-.068.459.437.675.552.675.344.005-.095-.013-.19-.052-.276-.056-.16-.252-.623-.567-1.336-.315-.713-.486-1.107-.567-1.255-.053-.068-.08-.115-.133-.115-.053 0-.056.047-.081.115-.204.343-.35.717-.433 1.107.152.34.227.71.216 1.082 0 .35.121 1.943.363 4.758-1.184-.245-2.388-.388-3.597-.427-.52-.022-1.033.133-1.453.44-.362.233-.584.63-.595 1.059.005.258.093.508.252.713.316.37.689.688 1.103.943.675.462 1.05.739 1.106.784-.486.186-.889.346-1.186.462-1.292.436-1.912 1.22-1.912 2.35-.005.167.004.335.025.502-1.023.459-1.859.713-2.531.713-.295.02-.591-.027-.864-.139-.376-.205-.62-.622-.726-1.242-.297-1.476-.539-2.626-.755-3.435-.431-1.842-1.106-3.293-2.016-4.33-.108-.116-.189-.093-.251.07-.063.163-.081.37-.134.668-.049.18-.067.367-.053.552.59 1.037 1.086 2.124 1.481 3.249.22.64.355 1.306.403 1.98.012.151-.016.303-.08.44 0 0-.106.113-.27.321-.725.781-1.57 1.442-2.504 1.958-1.347.806-2.642 1.198-3.828 1.198-.806 0-1.24-.37-1.24-1.105.056-.749.22-1.486.486-2.189.045-.103.072-.212.081-.324 0-.045-.028-.067-.053-.067-.025 0-.108.115-.216.32-.437.9-.667 1.884-.673 2.883-.02.427.102.848.35 1.197.283.398.75.623 1.24.598 1.049 0 2.208-.346 3.476-1.037 1.045-.558 2-1.273 2.828-2.119.4-.45.67-.998.781-1.589.136.806.252 1.336.297 1.612.162.783.459 1.313.917 1.589.403.221.86.326 1.32.301.728 0 1.723-.324 2.962-.969.675 1.085 1.403 1.637 2.212 1.637.35.005.68-.157.89-.437.233-.313.357-.694.35-1.084.018-.454-.126-.899-.406-1.256-.256-.315-.644-.493-1.05-.482-.587.02-1.168.12-1.726.3-.131-.203-.217-.43-.252-.669 0-.045.136-.138.43-.298.324-.18.66-.335 1.008-.462.656-.268 1.33-.491 2.015-.668.353.502.567.753.675.753.109 0 .109-.115.109-.346.003-.21-.015-.418-.056-.623.64-.213 1.277-.414 1.917-.603.086 1.16.131 1.87.131 2.124.005.42-.022.84-.08 1.256-.026.276-.026.436-.026.502 0 .065.081.067.134-.048.083-.108.155-.224.216-.346.373-.873.557-1.814.54-2.762 0-.136-.018-.46-.053-.967 1.202-.334 2.405-.626 3.61-.876.046-.017.091-.04.133-.067.044-.065.08-.135.108-.209l.35-.899c.053-.135.028-.226-.108-.25zm-8.73 6.528c.269.115.405.23.405.391 0 .116-.136.186-.35.186-.487-.012-.945-.23-1.26-.6.4-.077.812-.072 1.21.015l-.006.008zm1.428-4.52c-.365-.379-.771-.715-1.212-1.003l-1.295-.9c-.214-.16-.322-.275-.322-.32 0-.116.378-.161 1.13-.161 1.273.039 2.538.2 3.78.482l.09.02.093 1.228c-.735.198-1.489.409-2.264.652v.003zM65 41.923l-.068-.816c.733.168 1.312.322 1.715.452-.535.107-1.084.23-1.647.367v-.003z"/>
        <path d="M44.516 39.203c.217 2.26.325 3.595.325 4.032-.004.425-.04.849-.108 1.268-.019.167-.028.334-.028.502.028.068.053.045.136-.048.07-.118.133-.242.187-.369.404-.864.608-1.808.594-2.761 0-.344-.108-1.429-.297-3.294s-.27-3.07-.27-3.115c0-.116.028-.139.081-.093.456.439.708.575.708.371-.009-.103-.036-.205-.08-.299-.054-.163-.253-.6-.565-1.315-.312-.715-.504-1.127-.594-1.255-.053-.093-.081-.116-.109-.116-.027 0-.053.023-.106.093-.297.598-.43.967-.43 1.127.174.326.261.69.252 1.06-.018.381.09 1.978.304 4.212zM42.234 35.337c-.08-.163-.27-.622-.566-1.338-.298-.715-.504-1.104-.592-1.255-.056-.093-.081-.116-.109-.116-.051.007-.094.044-.108.093-.297.598-.43.967-.43 1.128.174.325.26.69.251 1.059 0 .484.108 2.051.325 4.725.217 2.673.35 4.17.35 4.536 0 .623-.08.992-.216 1.085-.42.317-.93.492-1.456.502-.915 0-1.643-.209-2.154-.6.89-.324 1.562-.553 2.048-.716l.483-.783c.044-.061.072-.132.081-.206 0-.045-.08-.138-.295-.276-.836-.53-1.967-.806-3.395-.806-.778.013-1.553.09-2.317.228-.837.186-1.295.347-1.376.503l-.483.944c-.021.043-.03.092-.028.14 0 .068.028.09.08.09.057-.004.111-.02.162-.045.275-.107.57-.154.864-.138.293.022.577.108.833.251.38.172.735.397 1.05.668-.743.444-1.585.697-2.45.738-.809 0-1.24-.301-1.24-.876.004-.102.022-.202.053-.299.028-.163 0-.23-.108-.23-.085.003-.164.045-.214.115-.62 1.082-1.348 1.634-2.209 1.634-.321.002-.623-.153-.809-.414-.128-.148-.205-.334-.216-.53.032-.135.077-.266.136-.392.053-.16.053-.25-.056-.25-.23.166-.446.35-.647.552-.43.391-.672.6-.725.645-.537.38-1.176.59-1.834.6-.38.007-.758-.072-1.103-.231-.275-.143-.443-.43-.434-.738.003-.157.031-.312.083-.46.053-.16.026-.23-.108-.23-.117.006-.23.046-.325.115-.308.277-.656.507-1.033.68-.188.093-.566.231-1.13.44-.062.014-.126.022-.19.022-.244-.428-.543-.823-.889-1.175-.275-.293-.65-.472-1.052-.502-.474.018-.921.225-1.24.575-.383.396-.596.926-.592 1.476 0 .736.62 1.105 1.832 1.105.453.017.907-.03 1.347-.138.071.135.108.284.108.437 0 .208-.377.6-1.103 1.2-.791.656-1.65 1.227-2.562 1.704-1.103.553-2.015.851-2.8.851-.89 0-1.537-.25-1.94-.713-.273-.339-.416-.763-.406-1.197.04-.755.195-1.499.459-2.207.02-.05.036-.1.05-.15.406-.269.787-.574 1.136-.912.47-.522.712-1.21.673-1.91-.047-.54-.22-1.06-.504-1.522-.43-.713-.647-1.104-.675-1.174.202.054.41.085.62.092.136 0 .188-.022.188-.092s-.052-.116-.16-.206c-.648-.555-1.079-.947-1.293-1.13-.044-.043-.102-.068-.164-.07-.025 0-.053.047-.08.163-.098.323-.17.654-.214.989.006.093.056.178.133.23.13.108.224.253.27.415.21.662.497 1.298.856 1.893.322.552.504.851.504.874 0 .23-.406.6-1.187 1.13-.927.598-1.922 1.085-2.964 1.45-1.232.464-2.535.714-3.852.739-1.375 0-2.453-.392-3.181-1.153-.49-.51-.77-1.184-.78-1.89.018-.312.072-.621.16-.921.056-.229.109-.46.19-.69.027-.162.027-.232-.028-.232-.056 0-.106.048-.162.163-.187.428-.322.876-.403 1.336-.054.332-.08.668-.08 1.004-.024.425.049.85.214 1.243.728 1.66 2.103 2.488 4.07 2.488 1.481 0 3.07-.415 4.769-1.22.572-.272 1.127-.577 1.662-.914-.414.877-.631 1.833-.637 2.801-.037.665.184 1.319.617 1.826.507.572 1.25.88 2.015.833 1.05 0 2.237-.462 3.637-1.36.924-.601 1.783-1.296 2.562-2.074.355-.352.622-.782.78-1.256.145-.304.23-.633.253-.969l.055-.045v.023c.834-.324 1.4-.623 1.698-.922.067-.068.156-.109.252-.115.053 0 .08.023.08.07-.017.345.072.687.255.98.252.346.725.53 1.4.53.69-.03 1.351-.28 1.887-.714.335-.26.634-.561.89-.899.03-.027.057-.058.08-.093.025 0 .025.023.053.093.136.944.647 1.406 1.483 1.406.837 0 1.481-.502 1.94-1.521.014-.052.042-.1.08-.138.024.043.042.09.053.138.252.783.837 1.175 1.726 1.175.523-.001 1.04-.12 1.511-.347.636-.303 1.257-.638 1.859-1.004.57.472 1.206.859 1.887 1.15.532.159 1.087.23 1.642.208.62 0 1.159-.324 1.617-.944.54-.753.836-1.775.836-3.087 0-.46-.108-1.843-.297-4.193-.189-2.35-.295-3.515-.295-3.547 0-.116.026-.138.053-.07.459.414.7.552.7.346.008-.055-.02-.146-.045-.284zM18.64 46.142c-.648 0-.945-.14-.945-.391 0-.209.217-.302.675-.302.323 0 .645.186 1.023.6-.248.05-.5.081-.753.093zm16.786-2.49c.252-.023.503-.045.808-.045.781 0 1.348.093 1.645.276-.463.154-.916.339-1.355.552-.34-.3-.711-.563-1.108-.783h.01z"/>
        <path d="M14.534 40.167c.252 3.133.375 4.906.375 5.345.006.42-.021.84-.08 1.255-.025.277-.025.44-.025.502 0 .063.08.07.133-.045.084-.108.156-.224.217-.346.372-.873.556-1.814.539-2.762 0-.346-.109-1.865-.35-4.606-.242-2.742-.325-4.113-.325-4.15 0-.116.027-.138.055-.07.456.439.673.554.673.346.004-.095-.014-.19-.053-.276-.056-.16-.252-.623-.567-1.336-.315-.713-.486-1.107-.567-1.268-.053-.07-.08-.115-.133-.115-.053 0-.056.045-.08.115-.205.342-.35.716-.432 1.105.151.341.224.712.214 1.085 0 .369.136 2.118.406 5.221zM5.65 41.54c.403.232.808.463 1.211.739.056.022.081 0 .136-.07.35-.483.54-.806.54-.945 0-.045-.217-.183-.62-.414-.212-.139-.438-.255-.675-.346-.028 0-.053.022-.108.07l-.484.899c-.028.022-.028.068 0 .068zM28.169 41.395c-.048-.003-.092.026-.109.07l-.405.71c-.203-.155-.419-.294-.645-.413-.183-.128-.383-.229-.594-.3-.026 0-.053.023-.109.069l-.483.896c-.028.045-.028.07 0 .07.403.229.808.46 1.211.736.056.022.08 0 .136-.046.163-.234.307-.48.431-.738.43.251.836.485 1.186.693.026.045.081.023.134-.047.35-.482.504-.784.504-.944 0-.046-.19-.184-.592-.415-.21-.137-.432-.251-.665-.341z"/>
        <path d="M27.602 41.488c.35-.502.504-.806.504-.97 0-.044-.19-.182-.592-.413-.212-.139-.439-.254-.675-.344-.044.005-.083.03-.106.067l-.504.9v.07c.427.22.841.466 1.24.735.052.023.08 0 .133-.045zM59.486 35.84c.053-.068.053-.114.028-.114-.025 0-.083 0-.164.023-2.154.668-4.23 1.336-6.224 1.958-.104.19-.188.39-.252.598 2.426-.851 4.554-1.544 6.385-2.12.1-.098.177-.216.227-.346zM61.144 34.484c-.325.208-.487.346-.487.414l-.052.301c0 .023 0 .023.025.045.055-.045.108-.07.136-.093.97-.574 1.617-.943 1.886-1.082.107-.095.173-.227.187-.369.027-.092.027-.138 0-.138-.028 0-.08 0-.214.07-.158.075-.311.159-.459.252-.14.084-.296.138-.458.16-.132-.014-.26-.053-.378-.115-.161-.07-.252-.138-.252-.208 0-.07.08-.116.189-.184.1-.076.224-.116.35-.115.121-.006.231.069.27.183.027.048.08.07.108.025.1-.136.166-.294.189-.462 0-.23-.136-.321-.35-.321-.27 0-.595.183-.97.597-.182.147-.291.367-.297.6.01.186.199.324.577.44zM25.662 36.587c.366-.017.547-.017.547-.017.95 0 1.433.05 1.433.156-.003.019-.02.033-.04.032-.295.184-.606.34-.93.467-.544.251-.889.432-1.007.502-.063.042-.124.088-.181.138l.252-.052c.572-.103 1.134-.259 1.677-.467.314-.216.593-.478.829-.776.252-.311.405-.502.405-.605 0-.208-.545-.311-1.637-.311-.223-.008-.445-.002-.667.017-.21.007-.406.097-.547.251l-.322.502c-.03.035-.051.076-.06.12.007.043.087.043.248.043zM37.705 35.982c.056-.07.056-.115.028-.115s-.08 0-.161.023c-2.156.667-4.23 1.335-6.224 1.958-.104.19-.189.392-.252.6 2.423-.854 4.551-1.544 6.385-2.122.097-.099.173-.215.224-.344zM23.237 35.679c.053-.07.053-.116.027-.116-.025 0-.08 0-.163.023-2.154.668-4.23 1.335-6.224 1.958-.103.192-.188.392-.252.6 2.425-.854 4.554-1.544 6.385-2.121.099-.098.176-.215.227-.344zM32.398 34.047c.092.1.216.164.35.183.05.005.1-.012.136-.045.025-.045.053-.045.106-.045s.217.206.433.62c.138.27.237.557.295.853 0 .116.028.161.055.161.028 0 .106-.068.19-.16.113-.251.198-.514.251-.784.189-.83.378-1.255.592-1.255.106.002.206.053.27.138.108.093.16.138.188.138.028 0 .109-.068.162-.206.029-.074.047-.152.055-.23-.023-.108-.08-.205-.164-.277-.08-.118-.208-.195-.35-.208-.252 0-.458.185-.672.6-.161.575-.298 1.004-.35 1.29 0 .045-.028.068-.028.093h-.028v-.093c-.074-.425-.246-.827-.504-1.175-.169-.268-.462-.433-.78-.44-.028 0-.109.071-.252.252-.064.095-.118.196-.162.301-.007.08.05.173.207.289zM1.06 33.891c.081 0 .217.183.403.575.156.298.283.61.378.931-.252.07-.403.37-.458.831-.025.09 0 .139.028.139.027 0 .052-.048.16-.164.11-.115.19-.183.253-.183.14.009.274.066.378.16-.226.057-.444.14-.648.252-.249.19-.381.495-.35.806.06.424.15.843.27 1.255.154.63.241 1.276.259 1.925 0 .322 0 .482.028.482.041-.045.07-.1.08-.16.063-.27.1-.546.109-.824-.013-.937-.195-1.864-.54-2.736.184-.163.407-.275.648-.324.27-.068.539-.115.78-.183.028 0 .081-.093.162-.231.08-.138.136-.251.108-.299-.027-.138-.16-.299-.43-.484-.195-.15-.422-.252-.663-.3.141-.238.227-.506.252-.782.189-.854.378-1.256.594-1.256.107.003.206.054.27.138.106.093.161.138.189.138.028 0 .106-.067.161-.205.027-.075.045-.153.053-.231-.02-.108-.077-.206-.161-.276-.08-.118-.208-.195-.35-.209-.252 0-.459.209-.675.6-.162.575-.295 1.004-.35 1.29.003.033-.006.065-.026.09 0 .026 0 .026-.027 0v-.09c-.08-.416-.252-.81-.504-1.152-.17-.268-.465-.432-.784-.437-.025 0-.105.068-.251.251-.064.095-.118.196-.162.302 0 .067.053.16.217.276.091.1.215.165.35.183.049.005.098-.012.134-.045.035-.053.063-.053.115-.053zM55.952 35.85c.295 0 .54-.347.673-1.005.013-.006.021-.02.021-.034 0-.014-.008-.027-.021-.034h-.028c0 .023-.025.046-.025.068-.19.276-.35.414-.486.414-.252 0-.35-.183-.35-.574.059-.487.195-.962.403-1.406.035-.09.062-.182.083-.276-.028 0-.083.07-.19.23-.369.563-.575 1.216-.594 1.888 0 .475.164.728.514.728zM19.033 34.185c.194-.208.317-.471.35-.753.02-.127-.022-.255-.113-.346-.09-.09-.219-.133-.346-.114-.332-.011-.62.226-.672.553-.005.047-.014.093-.028.138.028 0 .028.022.056.022.038-.018.074-.041.105-.07.097-.028.197-.043.298-.045.189 0 .297.07.297.25 0 .182-.325.53-.917 1.083-.108.115-.161.186-.161.186v.022c.091-.03.177-.077.252-.138.353-.187.654-.458.879-.788zM35.093 37.986c-.028 0-.08.07-.189.23-.369.563-.574 1.217-.592 1.889 0 .484.162.738.504.738.297 0 .54-.347.673-1.005.013-.006.021-.019.021-.033 0-.015-.008-.028-.021-.034h-.026c0 .022-.027.045-.027.067-.19.277-.35.415-.486.415-.252 0-.35-.184-.35-.575.06-.487.197-.961.405-1.406.037-.093.066-.189.088-.286zM18.529 39.846c.092.1.216.165.35.186.05.005.1-.012.136-.045.028-.048.053-.048.108-.048.056 0 .215.208.431.623.14.27.24.56.297.86 0 .116.026.164.053.164.028 0 .109-.07.19-.163.113-.25.198-.514.251-.784.189-.828.378-1.255.592-1.255.107.001.207.052.27.138.108.093.163.138.188.138.026 0 .109-.068.164-.208.027-.074.045-.15.053-.229-.02-.108-.076-.205-.161-.276-.08-.117-.209-.193-.35-.208-.252 0-.459.183-.675.6-.162.575-.295.989-.35 1.288 0 .047-.028.07-.028.093h-.025v-.093c-.077-.425-.249-.827-.504-1.175-.17-.268-.465-.432-.783-.437-.026 0-.109.07-.252.251-.064.094-.118.194-.162.299-.007.075.046.168.207.281zM49.24 33.861c.362-.015.546-.015.546-.015.95 0 1.433.05 1.433.153-.002.02-.02.035-.04.035-.295.185-.606.34-.93.467-.544.251-.889.432-1.007.502-.064.042-.124.089-.182.138l.252-.052c.573-.104 1.134-.26 1.678-.467.313-.217.592-.478.829-.776.252-.311.403-.502.403-.605 0-.208-.545-.311-1.635-.311-.223-.007-.446-.002-.668.017-.209.005-.407.096-.546.251l-.323.502c-.03.036-.05.078-.06.123.007.038.088.038.25.038zM6.582 32.965c.363-.018.544-.018.544-.018.95 0 1.436.05 1.436.156-.004.02-.021.033-.04.033-.295.183-.607.34-.93.467-.547.25-.89.431-1.008.502-.064.041-.126.087-.183.138l.264-.053c.573-.103 1.134-.259 1.678-.467.313-.216.592-.478.828-.776.252-.311.403-.502.403-.605 0-.209-.545-.313-1.637-.311-.223-.007-.446-.001-.667.018-.209.005-.406.096-.545.25l-.324.503c-.03.034-.051.076-.06.12-.003.043.077.043.24.043zM8.312 36.962c.092.1.216.164.35.183.05.004.1-.012.136-.045.026-.048.053-.048.106-.048s.217.208.434.622c.138.27.237.557.294.854 0 .116.028.16.056.16.027 0 .105-.07.186-.16.115-.25.2-.513.252-.783.189-.831.378-1.255.592-1.255.107 0 .207.052.27.138.108.093.16.138.188.138.028 0 .109-.068.162-.206.028-.074.047-.152.055-.231-.021-.108-.08-.206-.164-.276-.08-.119-.208-.195-.35-.209-.252 0-.458.186-.672.6-.162.575-.298.99-.35 1.29 0 .046-.028.069-.028.091H9.8v-.09c-.074-.426-.247-.828-.504-1.175-.168-.27-.462-.435-.78-.44-.028 0-.109.07-.253.252-.064.094-.119.195-.163.3-.015.081.04.174.211.29zM48.31 40.732c.194-.207.317-.471.35-.753.02-.127-.022-.255-.112-.346-.09-.091-.22-.134-.346-.116-.333-.01-.621.228-.673.555-.005.047-.014.093-.028.138.028 0 .028.023.053.023.04-.018.076-.042.108-.07.097-.029.197-.044.298-.046.189 0 .297.07.297.251s-.325.53-.917 1.082c-.108.116-.161.186-.161.186v.023c.09-.033.175-.08.252-.138.352-.189.654-.46.879-.789zM54.01 39.665c.092.1.216.164.35.184.05.005.1-.012.136-.046.028-.045.053-.045.109-.045.055 0 .214.206.43.623.14.268.24.554.297.85 0 .116.026.161.053.161.028 0 .109-.067.19-.16.113-.25.198-.514.251-.783.19-.829.378-1.256.592-1.256.107.001.207.052.27.138.108.09.163.138.189.138.025 0 .108-.07.16-.208.03-.074.048-.152.056-.23-.022-.108-.079-.205-.161-.277-.08-.117-.209-.192-.35-.206-.252 0-.459.183-.675.598-.161.577-.295 1.004-.35 1.29 0 .045-.028.07-.028.093h-.025v-.093c-.074-.425-.247-.827-.504-1.175-.17-.268-.463-.432-.78-.437-.026 0-.11.068-.253.251-.064.094-.118.194-.161.3-.01.09.043.182.204.29zM69.385 29.405c-.46-.048-.735-.078-.828-.093-.227-.053-.388-.095-.474-.123-.211-.063-.325-.103-.347-.108.23-.092.467-.162.71-.21.227-.048.448-.096.675-.149.065-.011.126-.042.174-.088.051-.083.09-.173.113-.268 0-.038-.065-.096-.196-.163-.088-.058-.188-.094-.293-.106-.037 0-.085.043-.146.123-.043.05-.073.11-.085.173 0 .063.042.116.123.161-.874.168-1.43.38-1.652.635-.088.096-.126.148-.121.163h.017c.029.003.058.003.086 0 .036-.009.072-.014.108-.015.016-.003.032-.003.048 0 .3.078.56.14.756.199-.184.064-.374.11-.567.138-.166.033-.334.05-.504.052h-.042c-.061-.002-.12-.018-.174-.047-.114-.046-.217-.114-.303-.201-.067-.08-.128-.163-.183-.251-.066-.106-.119-.158-.164-.158-.045 0-.151.072-.312.205-.162.134-.252.252-.252.33 0 .077-.086.075-.194.1-.068.017-.137.026-.207.027h-.108c-.024-.165-.09-.32-.194-.452-.09-.125-.174-.188-.252-.188-.078 0-.126.068-.222.199-.102.128-.16.287-.163.451-.012.09.03.179.108.226.07.03.145.048.222.053.146.015.251.02.34.025-.024.129-.09.245-.19.332-.192.207-.436.36-.707.444-.167.04-.338.06-.509.058h-.335c0 .02.083.045.24.077.165.035.334.053.503.053.158.007.315-.016.464-.068.178-.073.334-.193.45-.346.13-.167.222-.361.27-.567h.09c.181-.01.35-.094.467-.231.095.104.22.177.357.21.132.04.269.06.406.058.057 0 .115-.004.171-.012.043-.033.077-.076.098-.126.079.07.182.107.288.1h.042c.375-.018.745-.091 1.099-.215.252-.083.398-.126.415-.126.101-.032.207-.048.313-.048.07 0 .221 0 .46.018.033-.043.076-.115.142-.226.007-.01.002-.025-.03-.025zm-4.687.316c-.222 0-.33-.042-.33-.128.005-.043.026-.083.06-.11.023-.034.054-.06.09-.078.078.036.144.09.195.158.045.043.077.098.093.158h-.108zm1.274-.037c-.087-.032-.163-.086-.221-.158.034-.05.076-.092.126-.126.033-.034.076-.057.123-.068.023 0 .06.048.113.15.052.097.122.182.207.252-.118.005-.236-.012-.348-.05zM63.768 29.6c.052-.078.095-.162.129-.25 0-.025.017-.04 0-.048-.018-.007 0 0-.03 0-.305.176-.639.296-.985.354-.093-.032-.179-.082-.252-.148-.088-.06-.152-.149-.18-.251.084-.1.19-.177.31-.226.15-.076.314-.117.482-.12.086 0 .17.015.252.042.034.011.068.025.1.04h.013s-.06-.105-.174-.188c-.127-.087-.278-.135-.433-.138-.041-.005-.082-.005-.123 0-.14.032-.263.114-.346.23-.06.082-.117.165-.168.252-.06.084-.101.179-.124.279-.011.129.049.254.156.326-.104.034-.214.049-.324.045h-.028c-.228.018-.45-.075-.595-.25-.116-.172-.201-.362-.252-.563l-.146-.593c-.013-.092-.052-.18-.113-.25-.04.1-.075.201-.103.306.032.081.057.165.075.25-.283.1-.556.228-.816.38-.1.07-.19.155-.267.25-.062.076-.102.167-.113.264 0 .045.06.078.184.103.129.02.26.03.39.028.137.008.274-.006.406-.043.143-.086.27-.195.378-.324.059.22.176.419.34.578.18.136.402.202.627.188h.027c.232-.017.46-.059.683-.126.161-.03.32-.07.476-.123.194-.064.377-.156.544-.273zm-2.828-.228c-.065.032-.134.055-.204.068-.084.011-.168.016-.252.015-.108.002-.216-.005-.323-.02-.098 0-.15-.022-.15-.038 0-.067.15-.163.447-.283.168-.079.344-.138.524-.178l.099.361c-.044.032-.091.057-.141.075zM58.355 28.885c-.14.024-.264.1-.35.211-.124.121-.22.268-.282.43-.043.13-.24.19-.58.19h-.02c-.151.003-.302-.024-.443-.08-.125-.062-.247-.133-.363-.21-.152-.105-.313-.195-.48-.272-.295-.133-.6-.244-.91-.331-.13-.046-.267-.074-.406-.083.063-.086.137-.162.222-.226.16-.123.33-.235.504-.337.335-.2.756-.446 1.274-.73l.675-.362c.028-.015.056-.062.089-.148.02-.055.035-.112.042-.17v-.013c-.284.123-.558.268-.82.432-.343.198-.618.356-.834.477-.807.477-1.227.803-1.26.986-.02-.476-.09-.948-.206-1.41 0-.028-.02-.048-.028-.048s0 0 0 .015c-.042.068-.077.14-.103.216.06.414.12.88.173 1.396.023.23.048.461.07.697.01.136.044.268.104.39.09.145.256.226.426.208.237.003.466-.081.645-.236.078-.083.115-.196.1-.309.004-.085-.009-.17-.037-.25.189.083.372.181.546.293.157.104.319.199.486.284.178.08.37.123.565.125h.02c.107-.001.213-.026.31-.073.155-.064.278-.19.34-.346.159.15.37.232.59.23.033.007.068.007.102 0 .02 0 .053-.052.096-.132.042-.062.066-.134.07-.209-.008-.126-.041-.25-.098-.364-.098-.16-.163-.24-.229-.24zm-3.108.829c-.115.056-.24.087-.368.09-.126.004-.247-.046-.335-.135-.053-.11-.08-.23-.08-.352-.013-.085-.018-.18-.023-.289.187.012.37.051.546.116.313.108.476.251.476.397-.054.076-.13.136-.216.173zm3.156-.15c-.087-.003-.173-.023-.252-.059-.081-.027-.155-.073-.216-.133.044-.101.14-.171.251-.183.038 0 .081.048.129.138.042.066.069.14.078.219.005.005.008.01.01.017zM53.4 28.818c-.046.106-.08.217-.103.331.062.047.119.101.169.16.076.064.126.154.141.252v.03c0 .053-.118.095-.307.13-.127.021-.255.032-.383.033h-.02c-.184 0-.292-.03-.33-.083.033-.089.06-.18.08-.274 0-.037-.015-.057-.042-.057-.028 0-.048.015-.071.047-.023.033-.065.11-.098.164-.033.052-.086.125-.124.14-.404.18-.844.266-1.287.251-.323.025-.647-.042-.934-.193-.126-.063-.208-.19-.212-.331.008-.091.04-.178.093-.251.031-.038.051-.083.058-.131v-.02s-.038.02-.07.055c-.056.065-.106.134-.151.206-.067.095-.107.206-.119.321.011.17.106.323.252.41.254.168.557.25.862.23.238.002.477-.015.712-.052.33-.021.647-.14.91-.342.053.136.214.209.486.209h.038c.122-.003.243-.018.362-.045.137-.017.268-.064.383-.139.037-.053.063-.114.076-.178.03-.097.044-.197.043-.299 0-.153-.057-.301-.162-.414-.071-.07-.157-.125-.251-.16zM52.88 28.476c.048-.041.088-.092.117-.148.184.118.275.18.283.18.007 0 .063-.032.128-.105.066-.072.108-.12.108-.153 0-.032-.042-.053-.13-.11-.048-.036-.1-.064-.157-.083-.08.078-.154.162-.221.25 0-.014-.043-.052-.129-.104-.047-.04-.1-.069-.159-.088-.04.04-.078.081-.113.125-.063.078-.108.126-.123.146l.287.183c.015-.01.053-.04.108-.093zM51.353 30.68c-.048-.038-.103-.067-.162-.083-.04.037-.079.078-.113.121-.065.078-.103.126-.118.146.091.065.186.127.284.183.018 0 .06-.035.126-.103.066-.068.109-.126.109-.153 0-.028-.043-.053-.126-.11zM68.353 30.56c-.048-.04-.104-.067-.164-.083-.041.037-.08.077-.113.12l-.119.146c.092.066.188.128.287.183.015 0 .06-.035.124-.103.063-.067.108-.123.108-.153s-.043-.042-.123-.11zM68.076 27.836c.011-.046.019-.093.022-.14-.169.043-.332.106-.486.188-.108.043-.212.096-.31.158-.022.054-.033.112-.03.17.108-.057.252-.13.42-.208l.384-.168z"/>
        <path d="M63.58 27.803c.014-.103.025-.155.025-.173 0-.017-.157.06-.454.19l-.504.227c-.476.223-.755.346-.806.381-.02.01-.03.068-.03.174.317-.146.62-.284.917-.43.337-.148.617-.273.851-.369zM59.907 28.408c.05-.04.09-.09.118-.148.184.12.277.184.282.184.005 0 .066-.036.129-.108.063-.073.108-.12.108-.154 0-.032-.043-.052-.128-.11-.048-.035-.1-.063-.157-.083-.081.076-.156.16-.221.251 0-.015-.046-.053-.131-.105-.047-.038-.1-.068-.156-.088-.04.04-.078.081-.114.125l-.126.146.287.183c.018-.01.056-.04.109-.093zM56.977 28.707c-.005.032-.005.064 0 .096v.015c.194-.086.378-.179.557-.264l.504-.223c.02-.054.032-.111.033-.169-.209.079-.413.168-.613.266-.251.116-.393.189-.443.216-.023.005-.028.025-.038.063zM51.03 28.646c.091 0 .177-.043.232-.116.056-.064.087-.146.09-.231 0-.05-.019-.099-.052-.136-.031-.032-.074-.05-.119-.048-.05 0-.113.053-.189.168-.057.073-.095.16-.108.252-.002.086.048.111.146.111zm-.017-.305c.032-.042.06-.063.085-.063.044 0 .088.01.126.03.03.017.048.048.048.081 0 .036-.02.058-.07.073-.036.017-.075.026-.114.026-.047.004-.093-.012-.128-.043.01-.038.028-.073.053-.104zM65.24 28.678c.033-.002.066-.009.098-.02.119-.034.233-.083.34-.146.123-.067.236-.152.335-.252.073.034.141.079.201.133.047-.03.08-.078.09-.133 0-.03-.06-.078-.165-.151.028-.064.042-.133.042-.202.001-.053-.016-.105-.05-.146-.013-.024-.036-.04-.063-.043-.075.008-.142.048-.184.11-.057.058-.094.132-.103.213.002.078.053.147.128.17-.07.06-.146.113-.226.16-.146.095-.252.169-.356.221-.103.053-.108.063-.108.074 0 .01-.007.012.02.012zm.654-.688c.014-.055.062-.094.119-.096.037 0 .055.028.055.086-.002.03-.01.06-.023.088-.11-.032-.158-.058-.163-.078h.012zM67.904 55.358c-.13.073-.252.136-.362.204-.018.014-.029.035-.03.057v.173c0 .312-.222.437-.545.312-.115-.047-.226-.105-.33-.173-.043-.042-.112-.042-.156 0-.1.083-.212.151-.332.203-.21.08-.443.072-.645-.025-.148-.078-.216-.253-.159-.41.013-.032.02-.067.04-.135-.145.008-.289.028-.43.06-.272.096-.53.221-.799.324-.34.146-.718.174-1.075.08-.289-.062-.512-.289-.57-.577-.055-.294-.088-.59-.12-.886-.059-.502-.111-1.024-.164-1.537.01-.153.044-.304.103-.446h.038c.024.03.042.063.053.1.027.183.048.369.07.552.07.628.136 1.256.22 1.878.024.121.074.236.145.337.062.067.133.127.21.178.093-.156.17-.286.251-.414.104-.174.272-.299.469-.347.15-.023.302.002.436.073.549.229 1.144.325 1.738.281h.138c-.058.11-.1.208-.158.296-.02.03-.084.043-.129.048-.045.005-.13 0-.194 0-.063 0-.098.028-.1.05-.005.043.012.085.045.113.047.03.1.05.156.055.336.066.682-.05.91-.306.079-.082.163-.16.251-.233.108-.095.262-.115.39-.05.203.104.452.025.557-.176.023-.103.023-.209 0-.312-.028-.323-.063-.647-.098-.969-.023-.205-.055-.409-.07-.615.002-.135.048-.266.13-.374h.036c.02.059.035.118.048.179.078.65.15 1.3.229 1.948.022.182.058.362.108.54.032.094.084.18.154.25.149.128.367.135.524.015.028-.028.041-.068.037-.107-.017-.251-.035-.525-.063-.789-.032-.306-.065-.612-.11-.919-.03-.113-.066-.225-.111-.333-.03-.064-.043-.134-.035-.204.055-.17.138-.336.211-.502h.053c.013.072.02.145.023.219-.025.138.063.272.201.303.04 0 .076.03.136.053-.027.055-.06.108-.098.156-.103.116-.143.275-.108.426.072.486.096.978.073 1.469-.013.138-.042.275-.086.407-.049.128-.152.227-.282.272-.13.045-.273.03-.39-.041-.203-.107-.343-.302-.378-.527-.015-.063-.038-.139-.056-.204zm-4.713.271c.252.176.948 0 1.217-.173-.191-.084-.388-.155-.59-.21-.272-.033-.532.126-.627.383zm3.968.153c.048-.02.098-.03.105-.052.018-.035.018-.076 0-.11-.047-.045-.1-.084-.156-.116-.126-.078-.163-.04-.267.055-.018.027-.018.063 0 .09.101.05.212.083.318.133zM50.25 54.527c.114.124.169.292.15.46-.024.184-.064.367-.12.544-.032.11-.14.178-.252.161-.189.006-.375-.044-.534-.146-.045.05-.094.094-.146.133-.294.179-.658.199-.97.053-.044-.023-.097-.023-.141 0-.195.108-.42.145-.64.106-.127-.031-.238-.11-.307-.221-.13.068-.265.127-.403.175-.159.048-.33.063-.504.096-.144.03-.295.01-.426-.058-.064-.04-.125-.084-.181-.133-.079.07-.163.133-.252.188-.144.064-.308.064-.451 0-.054-.017-.112-.017-.166 0-.254.117-.545.117-.799 0-.042-.018-.09-.018-.133 0-.232.113-.796.11-.983-.148-.112-.165-.175-.358-.18-.557-.045-.54-.09-1.08-.14-1.62-.02-.205-.06-.409-.083-.614-.007-.147.057-.288.172-.38.025.054.044.11.058.169.025.167.045.334.06.502.048.527.088 1.054.139 1.579.011.159.043.316.093.467.076.19.269.308.473.289.169.027.342-.008.487-.098.057-.056.111-.116.16-.179.029-.025.06-.048.091-.067.015.031.024.065.028.1 0 .053-.038.103-.043.156-.002.031.014.06.04.078.244.065.503.006.693-.159.056-.062.091-.138.141-.206.018-.022.053-.032.078-.05 0 .03.036.06.03.088-.017.086-.047.168-.072.251.215.103.474.013.579-.2l.126-.252c.013-.022.05-.03.078-.045 0 .028.03.055.025.08-.012.043-.027.085-.045.126-.053.148 0 .251.174.251.425.015.856.025 1.209-.251.023-.015.05-.022.078-.023 0 0 .022.025.022.04.016.164.046.204.222.206.128 0 .255-.012.38-.037.177-.04.326-.158.404-.322.017-.032.062-.05.095-.075.013.039.02.08.02.12-.003.046-.019.09-.045.126-.04.06 0 .088.048.113.264.084.553.04.78-.118.06-.084.113-.173.157-.266.038-.065.033-.158.146-.173l.015.208c.002.007.002.014 0 .02-.045.186-.028.211.187.239.075.006.15.006.226 0 .09 0 .119-.056.104-.128-.005-.058-.02-.114-.046-.166-.1-.153-.02-.296.023-.442.025.048.045.035.07.01zM30.904 52.7c.024.053.041.108.053.165.047.442.093.884.136 1.326.038.359.068.72.111 1.082.014.131.082.251.187.332.105.08.239.115.37.095.142-.008.285-.025.425-.05.081 0 .119-.048.07-.129-.063-.128-.063-.278 0-.406.098-.23.256-.428.46-.573.168-.13.312-.125.42.033.214.24.245.59.076.863-.057.073-.118.142-.184.206.073.025.15.042.226.05.235.027.471.012.7-.042.162-.045.195-.075.18-.221-.058-.537-.116-1.073-.177-1.607-.012-.133-.04-.25-.065-.391-.003-.028-.012-.055-.028-.078-.191-.206-.083-.404.015-.605l.108-.204h.043c0 .07.018.139.023.209.005.07 0 .203.106.263.046.023.094.042.143.058.06.023.099.053.05.116-.147.194-.199.444-.14.68.052.444.08.891.123 1.338.017.217-.044.433-.171.61-.115.163-.304.258-.504.251-.345.027-.691-.032-1.008-.17-.036-.013-.076-.013-.113 0-.31.126-.644.18-.977.158-.221-.015-.416-.152-.504-.354-.077-.222-.112-.456-.103-.69-.052-.55-.104-1.1-.154-1.65-.024-.142-.036-.286-.038-.43.019-.089.054-.174.103-.25l.038.015zm1.907 2.159c-.068.042-.143.085-.212.138-.229.183-.216.286.05.434 0 0 .064.015.084 0 .108-.053.217-.11.32-.17.023-.016.048-.069.038-.086-.063-.1-.136-.198-.21-.296-.002-.003-.032-.005-.07-.02zM24.516 53.724c.043.143.091.286.129.432.076.382.193.754.347 1.112.252.502.99.57 1.393.25.162-.127.162-.12.348-.02.099.052.203.092.31.121.08.023.128-.012.12-.098-.022-.145.009-.294.086-.419.02-.023.043-.044.068-.063.02.025.053.048.06.076.07.279.005.574-.175.798-.088.095-.228.12-.343.063-.094-.042-.183-.092-.267-.15-.02-.027-.051-.043-.084-.043-.034 0-.065.016-.085.042-.375.394-1.138.291-1.413 0-.126-.155-.235-.324-.325-.502-.026-.048-.049-.099-.068-.15-.048.047-.078.077-.108.112-.162.219-.427.336-.698.31-.222-.02-.446-.023-.665-.051-.151-.023-.181-.08-.13-.206.128-.29.362-.523.654-.65.222-.106.453-.198.685-.294.066-.025.068-.06.058-.113-.028-.11-.098-.216-.048-.334.033-.078.058-.155.088-.233l.063.01zm-1.209 1.443l.018.06c.128.016.252.036.385.043.227.03.457.006.673-.07.237-.105.232-.075.161-.299-.009-.03-.016-.06-.02-.09-.028-.143-.07-.17-.222-.113-.216.083-.433.168-.64.251-.122.064-.24.137-.355.216v.002zM53.423 52.607c.003.029.003.058 0 .088-.015.077-.038.153-.048.228-.017.128.028.19.162.228.057.016.075.04.052.09-.012.03-.022.059-.03.089-.038.153-.038.153-.221.168 0 .07-.013.143-.018.216-.02.378-.106.75-.252 1.1-.086.17-.073.372.035.53.056.105.089.221.099.34.022.161-.048.252-.23.284-.335.058-.675.106-1.007.143-.182.023-.277-.078-.252-.236 0-.072.03-.145.045-.216h.043c.148.115.36.094.484-.047.138-.137.269-.282.39-.435.024-.038.024-.087 0-.125-.234-.271-.471-.537-.715-.801-.102-.098-.21-.19-.323-.276-.087-.09-.216-.125-.337-.093-.162.043-.335.009-.469-.093-.144-.101-.204-.285-.148-.452.017-.08.065-.118.173-.098.246.06.473.177.663.342.28.223.544.462.798.708.141.15.274.306.398.47.036.042.076.08.134.145.038-.088.068-.153.093-.216.115-.322.17-.663.161-1.004v-.502c.036-.213.133-.41.28-.568l.04-.007zm-.914 3.065l.02.038c.13-.033.264-.06.393-.1.03-.02.046-.054.04-.089-.033-.076-.072-.15-.116-.22l-.337.371zM26.877 57.09h.382c.223-.01.444-.042.66-.095.424-.113.786-.388 1.008-.766.021-.044.038-.09.05-.138l-.204-.017c-.13-.013-.252-.025-.393-.048-.117-.03-.203-.13-.214-.251-.003-.232.078-.457.23-.633 0-.015.025-.027.035-.04.168-.196.252-.2.433 0 .139.143.234.322.275.517-.001.035.015.068.043.09.028.02.064.026.098.016.229-.03.458-.05.682-.096.154-.03.217-.105.131-.236-.08-.115-.173-.223-.274-.321-.046-.048-.066-.083-.046-.143.02-.06.04-.136.06-.206.036-.113.066-.12.17-.043.256.18.384.494.324.801-.014.091-.035.18-.063.269-.048.129-.165.22-.302.238-.217.046-.436.08-.657.103-.088 0-.134.023-.159.106-.067.241-.189.464-.355.652-.19.23-.46.378-.756.417-.377.04-.76 0-1.12-.115-.01-.004-.018-.009-.026-.015l-.012-.046zm1.954-1.39l.028-.038c-.08-.092-.163-.18-.252-.264-.088-.077-.138-.065-.214.033-.076.098-.08.176.028.228.13.05.272.064.41.04zM61.01 55.607c-.104.22-.303.383-.541.442-.318.082-.756.055-.915-.252-.069-.151-.112-.313-.126-.479-.06-.6-.106-1.2-.161-1.8 0-.143-.045-.281-.063-.422-.006-.14.04-.277.131-.384h.043c.024.06.041.12.053.183.05.472.098.944.143 1.416.033.324.06.648.101.97.013.13.08.251.183.333.104.082.237.118.369.1.158-.006.315-.023.47-.05.117-.016.214-.095.253-.205.12-.316.356-.574.66-.723.058-.03.13-.02.176.027.255.271.314.671.149 1.004-.042.072-.122.113-.205.103-.21 0-.415-.064-.589-.183-.043-.03-.08-.05-.13-.08zm.504-.54c-.124.007-.235.08-.29.19-.004.023.004.046.02.061.134.065.267.136.408.188.089.035.124-.022.094-.09-.044-.1-.095-.198-.154-.291-.023-.03-.068-.048-.083-.058h.005zM36.723 54.964l-.139.269c-.138.263.04.436.252.52.241.091.498.136.756.132.394.005.789-.012 1.181-.05.268-.038.53-.102.786-.19.177-.053.202-.134.103-.277-.07-.101-.155-.193-.251-.27-.053-.046-.073-.079-.038-.139.035-.06.05-.105.073-.158.023-.053.093-.086.164-.035.231.165.445.54.304.836-.09.173-.242.306-.425.376-.356.148-.734.233-1.119.251-.31.023-.622.033-.934.033-.25.002-.498-.047-.728-.143-.325-.14-.542-.372-.32-.773.065-.112.136-.219.214-.322.029-.032.062-.06.098-.083l.023.023zM54.254 56.797c.039-.004.078-.004.116 0 .39.061.789.003 1.144-.169.301-.142.554-.37.725-.655.053-.095.028-.18-.05-.299-.048.056-.083.106-.126.146-.12.102-.287.126-.43.063-.117-.045-.194-.155-.197-.279-.015-.225.055-.447.196-.622.051-.068.106-.132.164-.194.023-.03.058-.05.097-.052.038-.002.075.012.102.04.22.172.373.414.436.685.066.385-.052.778-.318 1.065-.085.113-.183.217-.29.31-.17.139-.39.202-.609.177-.31-.005-.62-.056-.914-.154l-.046-.022v-.04zm1.585-1.256c.067-.025.13-.061.184-.108.017-.025-.03-.1-.063-.148-.033-.042-.072-.078-.116-.108-.03-.017-.064-.025-.098-.022-.06.074-.101.16-.124.25-.005.094.111.106.217.134v.002zM58.01 56.081c-.345.018-.438-.223-.353-.502.053-.178.147-.346.217-.522.05-.116.096-.234.136-.354.028-.078.073-.116.156-.07.175.082.343.177.504.283.173.135.235.368.151.57-.095.365-.433.613-.81.595zm.093-.376c.154-.002.304-.05.431-.136.128-.083.141-.146.025-.236-.146-.108-.298-.207-.456-.299-.025-.017-.057-.02-.086-.01-.029.011-.05.036-.057.066-.048.108-.088.221-.119.336-.043.18.058.281.262.279zM40.05 56.777h.152c.36.054.729.012 1.068-.123.328-.146.603-.39.785-.698.055-.106.033-.234-.052-.317-.08-.088-.164-.172-.252-.25-.02-.02-.05-.05-.043-.066.034-.1.077-.196.126-.289.043-.006.087.002.126.023.212.148.328.4.302.658-.01.26-.11.51-.282.705-.123.147-.255.287-.396.417-.158.125-.36.182-.561.158-.307.001-.611-.051-.9-.156-.029-.013-.057-.028-.085-.045l.012-.017z"/>
        <path d="M66.705 52.737c.023.158 0 .204-.143.264-.738.324-1.481.64-2.214.971-.436.199-.857.425-1.283.636-.035.014-.07.026-.108.035-.002-.103.052-.2.141-.251.23-.118.456-.251.688-.354.46-.221.924-.44 1.393-.65.468-.211.94-.405 1.41-.603.038-.019.076-.035.116-.048zM34.866 52.953c.043.347.086.69.124 1.037.048.46.1.916.133 1.376.005.178-.007.356-.037.532 0 .055-.06.105-.091.156h-.03c-.009-.023-.014-.047-.018-.07l-.133-1.326c-.046-.442-.096-.881-.144-1.323.003-.144.056-.283.151-.392l.045.01zM40.481 52.94l.058.473c.058.52.12 1.036.171 1.556.026.251.033.52.036.778-.002.129-.066.248-.172.322 0-.096 0-.164-.015-.234-.065-.605-.136-1.21-.201-1.815-.026-.226-.04-.452-.068-.678 0-.13.043-.257.12-.361.008-.01.033-.01.071-.04zM54.156 52.95c.018.164.04.327.058.503.058.502.118 1.024.169 1.536.025.251.033.502.033.768 0 .129-.063.249-.167.324 0-.058 0-.093-.015-.128l-.136-1.323c-.048-.44-.098-.876-.136-1.315.002-.135.056-.264.151-.36l.043-.004zM62.038 53.39c.017.052.012.108-.015.156-.026.047-.07.082-.124.095-.637.284-1.26.575-1.904.864l-.07.025c-.046-.118-.03-.179.075-.226l1.79-.814c.079-.035.157-.062.248-.1zM43.65 53.91c-.02-.113 0-.191.103-.251.597-.267 1.192-.538 1.786-.806.073-.033.149-.06.224-.09.043.12.018.183-.083.228l-1.947.881c-.027.014-.055.027-.083.038zM44.418 54.565c.08-.093.154-.176.227-.251.019-.026.048-.042.08-.044.032-.002.063.009.086.031.06.043.124.08.181.123.058.043.086.053.124-.012.023-.031.048-.06.075-.088.129-.146.139-.148.305-.033.21.14.212.146.035.324-.022.023-.047.043-.07.068-.02.026-.052.042-.086.042-.033 0-.065-.016-.085-.042-.068-.053-.149-.126-.225-.126-.075 0-.123.093-.18.146-.117.1-.122.103-.253.015l-.214-.153zM25.128 56.874l.232-.268c.02-.022.05-.035.08-.035s.058.013.079.035l.252.17c.06-.072.118-.138.176-.203.018-.029.047-.048.08-.053.034-.006.068.004.094.026.342.223.295.19.063.429-.025.032-.063.05-.103.05-.04 0-.079-.018-.104-.05-.196-.143-.201-.138-.372.017-.131.118-.131.118-.275.018-.058-.045-.126-.088-.202-.136zM46.471 54.71l.23-.266c.017-.025.045-.04.076-.043.03-.003.06.009.082.03.063.043.128.084.189.129.06.045.093.04.123-.018.19-.23.282-.236.504-.012.023.022 0 .07.015.105.015.035 0 .018-.015.028-.184.233-.224.25-.479.075-.08-.053-.115-.04-.17.025-.177.209-.18.206-.411.048l-.144-.1zM37.557 54.18l.231-.268c.017-.023.043-.037.071-.04.029-.003.057.006.078.025.063.043.128.083.189.128.06.045.093.053.133 0 .028-.041.06-.08.094-.115.017-.018.03-.043.053-.053.156-.078.214.063.312.113s.113.085.048.156l-.013.017c-.191.231-.209.236-.468.07-.078-.05-.114-.047-.172.02-.178.211-.184.206-.418.048l-.138-.1zM57.55 54.035c.077-.09.153-.176.226-.263.018-.024.045-.04.075-.043.03-.002.059.007.081.027.063.043.128.083.189.129.06.045.09.047.126-.016.01-.018.023-.034.04-.047.06-.053.149-.156.182-.143.11.052.213.119.307.198 0 0 0 .06-.015.08-.062.074-.13.142-.204.204-.037.016-.08.016-.116 0-.088-.043-.171-.138-.252-.136-.08.003-.141.108-.204.173-.02.028-.051.045-.085.047-.034.003-.068-.01-.091-.034-.081-.06-.164-.11-.26-.176zM23.078 53.362l.23-.263c.017-.025.044-.04.074-.044.03-.003.06.008.081.029.066.045.134.088.2.135.065.048.075.033.11-.012.036-.045.091-.11.136-.163.017-.026.044-.042.075-.047.03-.004.06.005.084.024.292.16.292.301 0 .47-.034.014-.072.014-.106 0-.085-.046-.166-.139-.252-.136-.085.002-.146.103-.209.168-.023.029-.058.045-.095.045-.038 0-.073-.016-.096-.045-.058-.05-.136-.098-.232-.16zM32.045 53.895l.227-.267c.018-.024.045-.04.076-.043.03-.003.06.006.083.026.058.04.123.078.179.123.055.045.1.058.14-.015.015-.024.034-.046.056-.063.058-.045.144-.133.171-.12.11.053.212.122.303.205.045.046-.225.327-.29.302-.084-.038-.163-.086-.234-.143-.06-.043-.094-.036-.139.017-.196.219-.199.219-.446.055l-.126-.077zM28.325 53.844l.803-.502c-.096-.083-.139-.212-.112-.336.026-.125.119-.225.24-.261.046-.007.093.005.13.032.086.085.108.216.055.324-.025.086 0 .123.068.171.123.093.123.123.045.216-.011.021-.033.036-.057.038-.024.003-.048-.007-.064-.026-.026-.02-.051-.04-.075-.062-.053-.05-.099-.043-.151 0-.22.19-.478.332-.756.416-.04.01-.08.016-.121.018l-.005-.028zm1.033-.795c-.053-.046-.094-.1-.116-.096-.023.005-.073.055-.108.088.039.03.08.058.125.08.016.005.05-.035.099-.072zM65.927 54.758l.803-.502c-.096-.084-.138-.213-.112-.337.027-.125.119-.225.24-.263.047-.01.095.001.133.03.038.028.061.071.064.118.015.07.015.142 0 .211-.03.08 0 .123.066.17.126.091.126.124.048.217-.04.047-.076.052-.121.012-.024-.017-.047-.035-.068-.055-.058-.058-.106-.053-.169 0-.22.19-.477.332-.756.417-.037.004-.075.004-.113 0l-.015-.018zm1.03-.8c-.05-.043-.093-.096-.116-.091-.022.005-.07.06-.103.09.04.032.082.058.128.078.013.005.048-.04.091-.078zM56.264 53.641c.018.11 0 .188-.105.251l-1.091.502c-.029.011-.058.02-.088.025-.025-.108.037-.217.143-.25.338-.146.665-.307 1.008-.46.04-.035.08-.048.133-.068zM42.317 53.593c.02.108.013.189-.103.251l-1.103.502c-.023.008-.047.013-.07.016-.018-.164 0-.181.148-.252l.987-.456c.05-.028.096-.04.141-.06zM31.531 53.448c0-.093-.012-.181.091-.229l1.111-.502.086-.03c.012.098.017.18-.094.231l-1.11.502c-.028.01-.055.02-.084.028zM26.234 53.357c.02.038.038.078.05.118.048.279-.145.485-.463.502-.036.007-.071.02-.103.038-.088.045-.174.118-.28.05-.106-.068-.08-.175-.053-.27.022-.053.049-.103.081-.149h.03c-.002.023-.002.047 0 .07.015.05.023.133.058.143.081.024.167-.016.202-.092.022-.05.03-.106.05-.156.015-.027.034-.053.055-.075l.038.082c0 .046.023.088.033.133.067-.01.132-.031.194-.06.033-.035.042-.086.025-.13-.03-.063.018-.116.083-.204zM48.7 54.003l.423-.252c-.085-.062-.192-.088-.297-.07-.092.032-.18.073-.264.123.08-.23.315-.37.556-.331.06.008.119.02.177.037.11.036.143.078.08.169-.062.081-.14.15-.229.2-.13.068-.262.128-.398.181l-.048-.057zM29.856 53.681c.101.075.204.15.298.236.012 0-.028.08-.053.116-.161.22-.194.226-.426.072-.032-.015-.063-.035-.09-.057-.018-.018-.03-.06-.018-.076.07-.087.148-.17.224-.25.02-.016.042-.03.065-.04zM27.204 54.118c.096.073.197.146.295.223 0 0 0 .048-.018.066-.061.076-.127.149-.196.218-.032.015-.07.015-.101 0-.087-.048-.171-.102-.252-.16-.015 0-.028-.05-.018-.06.076-.091.159-.18.252-.267.012-.008.025-.015.038-.02z"/>
        <path d="M45.025 54.296c-.1-.07-.201-.14-.297-.213 0 0 0-.033.013-.048.008-.015.02-.028.032-.04.217-.281.177-.271.484-.055.05.035.063.075.018.12-.046.045-.114.128-.172.189-.024.018-.05.034-.078.047z"/>
    </g>
</svg>
